<?xml version="1.0" encoding="utf-8"?>
<!-- Generator: Adobe Illustrator 23.0.2, SVG Export Plug-In . SVG Version: 6.00 Build 0)  -->
<svg version="1.1" id="Layer_1" xmlns="http://www.w3.org/2000/svg" xmlns:xlink="http://www.w3.org/1999/xlink" x="0px" y="0px"
	 viewBox="0 0 32 32" style="enable-background:new 0 0 32 32;" xml:space="preserve">
<style type="text/css">
	.st0{fill:#00B37E;}
	.st1{fill:#F6F6F6;}
</style>
<g>
	<path class="st0" d="M25.02,0H6.98C3.13,0,0,3.13,0,6.98v18.03C0,28.87,3.13,32,6.98,32h18.03c3.86,0,6.98-3.13,6.98-6.98V6.98
		C32,3.13,28.87,0,25.02,0z"/>
	<g>
		<path class="st1" d="M20.68,7.2c-1.82,0-3.48,0.74-4.68,1.95c-1.2-1.2-2.86-1.95-4.68-1.95c-3.65,0-6.62,2.97-6.62,6.62v10.56
			c0,0.24,0.19,0.43,0.43,0.43h3c0.24,0,0.43-0.19,0.43-0.43V13.81c0-1.63,1.44-2.94,3.11-2.72c1.38,0.18,2.38,1.42,2.38,2.82v6.33
			c0,0.24,0.19,0.43,0.43,0.43h3c0.24,0,0.43-0.19,0.43-0.43v-6.42c0-1.63,1.43-2.94,3.11-2.72c1.39,0.18,2.39,1.42,2.39,2.82v2.55
			c0,0.16,0.08,0.3,0.22,0.38l3,1.74c0.29,0.17,0.65-0.04,0.65-0.38v-4.38C27.3,10.16,24.34,7.2,20.68,7.2z"/>
		<path class="st1" d="M27.07,21.04l-4.6-2.65c-0.32-0.18-0.71,0.05-0.71,0.41v5.31c0,0.37,0.4,0.59,0.71,0.41l4.6-2.65
			C27.38,21.68,27.38,21.22,27.07,21.04z"/>
	</g>
</g>
</svg>
