<?xml version="1.0" encoding="utf-8"?>
<!-- Generator: Adobe Illustrator 23.0.2, SVG Export Plug-In . SVG Version: 6.00 Build 0)  -->
<svg version="1.1" id="Layer_1" xmlns="http://www.w3.org/2000/svg" xmlns:xlink="http://www.w3.org/1999/xlink" x="0px" y="0px"
	 viewBox="0 0 680 400" style="enable-background:new 0 0 680 400;" xml:space="preserve">
<style type="text/css">
	.st0{fill:#FFFFFF;}
	.st1{fill:#1A1A1A;}
	.st2{fill:#00B37E;}
</style>
<rect class="st0" width="680" height="400"/>
<g>
	<g>
		<path class="st1" d="M306.78,187.57c-4.08,0-6.24,1.76-7.71,3.81c-0.88-1.94-2.86-3.81-6.45-3.81c-3.67,0-5.68,1.7-6.95,3.56
			c-0.04-0.98-0.18-2.37-0.27-2.98h-6.62c0.05,2.14,0.05,4.28,0.05,6.45v18.57h6.84v-13.97c0-4.29,1.34-6.02,4.15-6.02
			c2.96,0,3.59,2.1,3.59,4.69v15.3h6.79v-14.3c0-3.84,1.15-5.73,4.09-5.73c2.84,0,3.66,2.21,3.66,4.47v15.57h6.75v-16.41
			C314.7,190.25,311.14,187.57,306.78,187.57z"/>
		<path class="st1" d="M335.08,187.57c-3.97,0-6.2,1.86-7.27,3.7c0-0.92-0.13-2.45-0.23-3.12h-6.71c0.05,2.01,0.05,4.01,0.05,6.03
			v28.56h6.88v-11.79c0.95,1.46,2.79,2.79,6.32,2.79c6.06,0,10.91-4.89,10.91-13.71C345.04,192.27,340.69,187.57,335.08,187.57z
			 M332.56,208.24c-3.74,0-5.03-2.78-5.03-7.55c0-5.04,1.39-7.56,5.33-7.56c3.29,0,5.15,2.59,5.15,7.17
			C338.01,205.39,336.23,208.24,332.56,208.24z"/>
		<rect x="349.82" y="177.89" class="st1" width="6.92" height="35.27"/>
		<path class="st1" d="M374.11,187.57c-7.94,0-12.61,5.45-12.61,13.17c0,7.47,4.53,13,12.28,13c7.92,0,12.45-5.57,12.45-13.13
			C386.24,192.77,381.48,187.57,374.11,187.57z M373.94,208.33c-3.34,0-5.41-2.85-5.41-7.67c0-5.29,2.1-7.67,5.31-7.67
			c3.45,0,5.37,2.48,5.37,7.71C379.21,205.47,377.33,208.33,373.94,208.33z"/>
		<path class="st1" d="M400.89,206.8h-0.05c-0.4-2.31-2.65-10.01-5.23-18.64h-7.42l9.1,25.78c-0.94,2.76-2.22,3.65-4.76,3.65
			c-0.56,0-1.32-0.05-1.79-0.1v5.57c1.2,0.14,2.63,0.19,3.24,0.19c6.01,0,8-2.15,10.39-9.34l8.4-25.73h-6.89
			C402.89,198.67,401.43,204.27,400.89,206.8z"/>
		<path class="st1" d="M436.2,196.19c0-5.95-3.65-8.57-10.35-8.61c-7.61-0.04-10.35,3.55-10.73,8h6.59
			c0.32-1.81,0.96-3.05,3.88-3.05c3.21,0,3.85,1.75,3.85,3.53v1.53c-0.84,0-2.35,0-3.57,0c-7.33,0-11.91,2.63-11.91,8.33
			c0,3.88,2.54,7.84,8.57,7.84c4.42,0,6.13-1.62,7.03-3.02c0.01,0.63,0.16,1.95,0.35,2.45h6.62c-0.14-0.6-0.34-4.08-0.34-6.46
			V196.19z M429.45,202.44c0,3.31-0.54,6.36-4.94,6.36c-2.49,0-3.6-1.52-3.6-3.34c0-2.41,1.55-3.69,5.72-3.69c0.91,0,2.24,0,2.82,0
			V202.44z"/>
		<path class="st1" d="M476.55,196.19c0-5.95-3.65-8.57-10.35-8.61c-7.61-0.04-10.35,3.55-10.73,8h6.59
			c0.32-1.81,0.96-3.05,3.88-3.05c3.21,0,3.85,1.75,3.85,3.53v1.53c-0.84,0-2.35,0-3.57,0c-7.33,0-11.91,2.63-11.91,8.33
			c0,3.88,2.54,7.84,8.57,7.84c4.42,0,6.13-1.62,7.03-3.02c0.01,0.63,0.16,1.95,0.35,2.45h6.62c-0.14-0.6-0.34-4.08-0.34-6.46
			V196.19z M469.8,202.44c0,3.31-0.54,6.36-4.94,6.36c-2.49,0-3.6-1.52-3.6-3.34c0-2.41,1.55-3.69,5.72-3.69c0.91,0,2.24,0,2.82,0
			V202.44z"/>
		<rect x="482.82" y="188.15" class="st1" width="6.93" height="25.01"/>
		<circle class="st1" cx="445.83" cy="209.32" r="3.72"/>
		<circle class="st1" cx="486.28" cy="180.49" r="3.72"/>
	</g>
	<g>
		<path class="st2" d="M240.71,172.07c-5.79,0-11.04,2.36-14.85,6.17c-3.81-3.81-9.06-6.17-14.85-6.17
			c-11.59,0-21.01,9.42-21.01,20.99v33.48c0,0.76,0.62,1.38,1.38,1.38h9.52c0.76,0,1.38-0.62,1.38-1.38v-33.48
			c0-5.18,4.56-9.32,9.87-8.63c4.39,0.57,7.56,4.51,7.56,8.93v20.08c0,0.76,0.62,1.38,1.38,1.38h9.52c0.76,0,1.38-0.62,1.38-1.38
			v-20.38c0-5.18,4.54-9.32,9.86-8.63c4.4,0.56,7.57,4.52,7.57,8.95v8.07c0,0.49,0.26,0.95,0.69,1.19l9.52,5.5
			c0.92,0.53,2.07-0.13,2.07-1.19v-13.89C261.71,181.49,252.29,172.07,240.71,172.07z"/>
		<path class="st2" d="M260.96,215.97l-14.58-8.42c-1-0.58-2.26,0.15-2.26,1.31v16.84c0,1.16,1.26,1.89,2.26,1.31l14.58-8.42
			C261.96,218,261.96,216.55,260.96,215.97z"/>
	</g>
</g>
</svg>
