<?xml version="1.0" encoding="utf-8"?>
<svg version="1.1" xmlns="http://www.w3.org/2000/svg" viewBox="0 0 32 32">
<defs>
  <linearGradient id="og" x1="0" y1="0" x2="32" y2="32" gradientUnits="userSpaceOnUse">
    <stop offset="0" stop-color="#FB923C"/>
    <stop offset="1" stop-color="#F97316"/>
  </linearGradient>
</defs>
<rect width="32" height="32" rx="7" fill="url(#og)"/>
<g>
  <path fill="#fff" d="M20.68,7.2c-1.82,0-3.48,0.74-4.68,1.95c-1.2-1.2-2.86-1.95-4.68-1.95c-3.65,0-6.62,2.97-6.62,6.62v10.56
    c0,0.24,0.19,0.43,0.43,0.43h3c0.24,0,0.43-0.19,0.43-0.43V13.81c0-1.63,1.44-2.94,3.11-2.72c1.38,0.18,2.38,1.42,2.38,2.82v6.33
    c0,0.24,0.19,0.43,0.43,0.43h3c0.24,0,0.43-0.19,0.43-0.43v-6.42c0-1.63,1.43-2.94,3.11-2.72c1.39,0.18,2.39,1.42,2.39,2.82v2.55
    c0,0.16,0.08,0.3,0.22,0.38l3,1.74c0.29,0.17,0.65-0.04,0.65-0.38v-4.38C27.3,10.16,24.34,7.2,20.68,7.2z"/>
  <path fill="#fff" d="M27.07,21.04l-4.6-2.65c-0.32-0.18-0.71,0.05-0.71,0.41v5.31c0,0.37,0.4,0.59,0.71,0.41l4.6-2.65
    C27.38,21.68,27.38,21.22,27.07,21.04z"/>
</g>
</svg>
